<svg xmlns="http://www.w3.org/2000/svg" width="53.228" height="37.411" viewBox="0 0 53.228 37.411">
  <path id="Icon_material-laptop-mac" data-name="Icon material-laptop-mac" d="M44.356,37.51a4.412,4.412,0,0,0,4.413-4.4L48.792,8.9a4.432,4.432,0,0,0-4.436-4.4H8.871A4.432,4.432,0,0,0,4.436,8.9V33.109a4.432,4.432,0,0,0,4.436,4.4H0a4.432,4.432,0,0,0,4.436,4.4H48.792a4.432,4.432,0,0,0,4.436-4.4ZM8.871,8.9H44.356V33.109H8.871ZM26.614,39.711a2.2,2.2,0,1,1,2.218-2.2A2.216,2.216,0,0,1,26.614,39.711Z" transform="translate(0 -4.5)" fill="#fff"/>
</svg>
