<svg xmlns="http://www.w3.org/2000/svg" width="37.236" height="37.56" viewBox="0 0 37.236 37.56">
  <path id="Icon_simple-probot" data-name="Icon simple-probot" d="M18.618.06a2.741,2.741,0,0,0-.833,5.34L16.806,9.45h-13A3.834,3.834,0,0,0,0,13.306V33.764A3.834,3.834,0,0,0,3.811,37.62H33.426a3.834,3.834,0,0,0,3.811-3.856V13.306A3.834,3.834,0,0,0,33.426,9.45H20.388l-.956-4.043A2.741,2.741,0,0,0,18.617.06ZM6.1,12.372H31.137A3.113,3.113,0,0,1,34.231,15.5V31.388a3.112,3.112,0,0,1-3.094,3.131H6.1a3.112,3.112,0,0,1-3.094-3.131V15.5A3.113,3.113,0,0,1,6.1,12.372ZM11.151,16a7.184,7.184,0,1,0,7.1,7.184A7.141,7.141,0,0,0,11.151,16Zm15.116,0a7.184,7.184,0,1,0,7.1,7.184A7.141,7.141,0,0,0,26.267,16Zm-15.116,1.68a5.5,5.5,0,1,1-5.44,5.5,5.471,5.471,0,0,1,5.44-5.5Zm15.116,0a5.5,5.5,0,1,1-5.44,5.5,5.471,5.471,0,0,1,5.44-5.5ZM11.151,20.293a2.894,2.894,0,1,0,2.859,2.894A2.877,2.877,0,0,0,11.151,20.293Zm15.116,0a2.894,2.894,0,1,0,2.859,2.894,2.877,2.877,0,0,0-2.859-2.894ZM15.52,30.5v3.39h1.1V30.5Zm1.671,0v3.39h1.094V30.5Zm1.669,0v3.39h1.1V30.5Zm1.671,0v3.39h1.1V30.5Zm1.671.047v3.3A1.692,1.692,0,0,0,23.488,32.2v0A1.692,1.692,0,0,0,22.2,30.546Zm-7.258.044a1.694,1.694,0,0,0-1.134,1.6v0a1.693,1.693,0,0,0,1.134,1.6V30.59Z" transform="translate(0 -0.06)" fill="#fff"/>
</svg>
