<svg xmlns="http://www.w3.org/2000/svg" width="33.316" height="40.895" viewBox="0 0 33.316 40.895">
  <g id="Icon_feather-speaker" data-name="Icon feather-speaker" transform="translate(-4.5 -1.5)">
    <path id="Path_9" data-name="Path 9" d="M9.79,3H32.527a3.79,3.79,0,0,1,3.79,3.79V37.106a3.79,3.79,0,0,1-3.79,3.79H9.79A3.79,3.79,0,0,1,6,37.106V6.79A3.79,3.79,0,0,1,9.79,3Z" transform="translate(0 0)" fill="none" stroke="#fff" stroke-linecap="round" stroke-linejoin="round" stroke-width="3"/>
    <path id="Path_10" data-name="Path 10" d="M27.158,22.579A7.579,7.579,0,1,1,19.579,15,7.579,7.579,0,0,1,27.158,22.579Z" transform="translate(1.579 3.158)" fill="none" stroke="#fff" stroke-linecap="round" stroke-linejoin="round" stroke-width="3"/>
    <path id="Path_11" data-name="Path 11" d="M18,9h0" transform="translate(3.158 1.579)" fill="none" stroke="#fff" stroke-linecap="round" stroke-linejoin="round" stroke-width="3"/>
  </g>
</svg>
